<?xml version="1.0" encoding="utf-8"?>
<!-- Generator: Adobe Illustrator 23.0.1, SVG Export Plug-In . SVG Version: 6.00 Build 0)  -->
<svg version="1.1" id="图层_1" xmlns="http://www.w3.org/2000/svg" xmlns:xlink="http://www.w3.org/1999/xlink" x="0px" y="0px"
	 viewBox="0 0 1000 200" style="enable-background:new 0 0 1000 200;" xml:space="preserve">
<style type="text/css">
	.st0{fill:none;}
	.st1{fill:#0084FF;}
	.st2{fill:#FFFFFF;}
	.st3{fill:#A5A5A5;}
	.st4{fill:#0000FF;}
	.st5{fill:#FF0000;}
</style>
<title>logo@2x</title>
<rect class="st0" width="1000" height="200"/>
<circle class="st1" cx="85" cy="100" r="85"/>
<path class="st2" d="M157.3,100c0,39.9-32.3,72.3-72.3,72.3S12.8,139.9,12.8,100S45.1,27.8,85,27.8C124.9,27.7,157.2,60.1,157.3,100
	C157.3,100,157.3,100,157.3,100"/>
<polygon class="st3" points="42.9,57.9 79,106 127.1,142.1 91,94 "/>
<polygon class="st3" points="25.5,100 85,108.5 144.5,100 85,91.5 "/>
<polygon class="st3" points="42.9,142.1 91,106 127.1,57.9 79,94 "/>
<polygon class="st4" points="85,159.5 97.7,100 72.3,100 "/>
<polygon class="st5" points="72.3,100 97.7,100 85,40.5 "/>
<path class="st2" d="M89.5,95.5c2.5,2.5,2.5,6.5,0,9c-2.5,2.5-6.5,2.5-9,0c-2.5-2.5-2.5-6.5,0-9C83,93,87,93,89.5,95.5
	C89.5,95.5,89.5,95.5,89.5,95.5"/>
<path class="st2" d="M823.8,103.3c3.9-0.6,9.4-1.8,16.5-3.7c1-0.3,2-0.4,3-0.4c3.6-0.1,7.2,1.1,10.1,3.2c2.9,2.1,4.3,4.5,4.3,7.1
	c0,2.2-1.6,3.3-4.8,3.3c-2.5,0-7.4-0.7-14.6-2.2c-2.1-0.3-4.2-0.5-6.3-0.4c-2.7,0-5.4,0.3-8,0.9c-0.2,1.8-0.3,3.7-0.3,5.6l0.8,20.5
	c0.1,5.2-0.8,10.4-2.6,15.3c-1.7,4.3-2.9,6.4-3.5,6.4c-0.6,0-1.5-0.5-2.5-1.6c-1.6-1.4-3.5-2.5-5.5-3.2c-3-1.3-5.8-2.8-8.4-4.6
	c-2.2-1.4-4.3-3-6.2-4.8c-2-2.2-3.8-4.5-5.5-6.9c-2.6-3.5-4.1-5.6-4.5-6.5c-0.5-0.9-0.7-1.9-0.7-2.9c-0.1-0.9,0.2-1.9,0.7-2.7
	c0.7-0.8,1.7-1.3,2.8-1.3c2.4-0.3,4.9-0.4,7.3-0.3c2.6,0,5.2,0.1,7.8,0.4c1.8,0.3,3.4,1.2,4.5,2.5c1.1,1.1,1.8,2.5,1.9,4
	c0,1.2-0.9,2.4-2.8,3.6c-1.4,1-3,1.6-4.6,1.8c-0.8-0.1-1.6-0.4-2.2-1c-0.7-0.6-1.5-1.1-2.3-1.6c-1.3-0.6-2.6-1-3.9-1.2
	c-1.2-0.3-2.5-0.5-3.7-0.7c-0.6,0-0.9,0.3-0.9,0.8c0,0.5,0.6,1.5,1.8,2.9c1.4,1.5,3,2.8,4.8,3.9c1.6,1,3.4,1.8,5.2,2.2
	c3,0.3,6,0.5,9.1,0.4c1.3,0.1,2.7-0.3,3.8-1c0.9-0.7,1.4-2.6,1.7-5.9c0.3-3.3,0.4-6.6,0.4-10.1c-0.1-4.3-0.5-8.6-1.3-12.8
	c-9,1.9-17.9,4.6-26.4,8.1c-12.8,5.5-20.1,8.2-21.9,8.2c-1,0-2.8-1.1-5.4-3.2c-2.5-2.1-3.8-3.5-3.8-4.1c0-0.6,0.4-1.2,0.9-1.5
	c0.6-0.4,1.3-0.6,2-0.6c0.5,0,1,0.3,1.4,0.7c0.4,0.5,1,0.7,1.6,0.7c1.1,0,6.8-2.4,17-7.1c10.2-4.7,16.8-8.4,19.7-11.2
	c-6.4,0.2-10.5-1.6-12.3-5.4c-1.8-3.8-2.8-7.9-2.7-12.1c0-2.4,0.5-8.6,1.6-18.6c0.1-1,0.1-1.9,0.1-2.9c0-1.1-0.5-2.1-1.4-2.9
	c-1.5-1.1-1.8-3.2-0.7-4.7c0,0,0,0,0,0c0.5-0.7,1.2-1.2,2-1.6c0.8-0.4,1.7-0.6,2.6-0.6l2.4,0.1c3.7,0,9-2.9,16.1-8.6
	c2.4-1.8,5.3-2.7,8.3-2.6c3.4,0,6.8,1.3,10.4,3.9c3.6,2.6,5.4,5.4,5.4,8.4c0.1,0.9-0.2,1.9-0.8,2.6c-3.9,3.9-6.5,7.5-7.8,10.7
	c2.1,1.8,3.1,3.6,3.1,5.4c0,1.7-1.4,2.9-4.1,3.3c-2.8,0.5-5.5,1.2-8.2,2.2c-2.7,1-7,2.8-12.8,5.5c-0.3,0.2-0.7,0.3-1,0.3
	c-1.6,0-3.7-1-6.3-3c-0.6,1.9-1,3.8-1,5.7c0,2.9,1.2,4.3,3.7,4.3c3.5-0.2,7.1-0.8,10.5-1.8c4.5-1.2,8.8-2.8,13.1-4.7
	c0.3-0.2,0.7-0.3,1-0.3c1.9,0.2,3.8,0.9,5.4,2.1c2.1,1.4,3.1,2.6,3.1,3.5c0,4.2-2.1,6.7-6.3,7.4C823.4,99.7,823.7,101.5,823.8,103.3
	z M813.4,105.4c-0.1-1.3-0.5-2.5-1-3.7c-1.9,0.3-3.9,0.5-6,0.7c-13.6,6.4-22.3,10.6-26,12.5L813.4,105.4z M811.1,67
	c1.7-2.2,2.6-3.8,2.6-5c0-1.1-0.1-1.7-0.4-1.7c-0.2,0-0.4,0-0.7,0.1c-3.7,2.7-6.5,4.1-8.6,4.1c-1.1,0-3.3-1-6.4-3
	c-1,5.6-1.8,9.8-2.6,12.7C797.6,74.1,803,71.7,811.1,67z"/>
<path class="st2" d="M945.8,102.3c5.6-4,9.2-7.2,11-9.5c1-1.6,2.8-2.4,5.3-2.4c2.4,0,4.7,0.6,6.7,1.9c1.9,1.2,3.1,3.3,3,5.6
	c0,1.1-0.3,2.2-1,3c-1.7,1.8-3.8,6.7-6.1,14.6c-2.3,7.9-3.5,13-3.5,15.5c0,5,4.5,7.4,13.6,7.4c6.5,0,9.8-2.7,9.8-8.1
	c0-3.5-1.3-8.1-3.9-14c-0.2-0.4-0.3-0.8-0.3-1.2c0-0.3,0.2-0.5,0.5-0.5c0.3,0,0.7,0.3,1.1,0.9c3.9,5.9,8.2,11.6,12.8,17
	c1.2,1.3,1.9,3,2,4.8c0.1,1.6-0.5,3.1-1.4,4.4c-1,1.2-3.5,2.4-7.6,3.7c-4.1,1.3-8.4,2-12.7,2c-5.2,0.1-10.4-0.9-15.2-3.1
	c-4.3-2-6.5-5.9-6.5-11.4c0.3-4.4,0.9-8.8,1.8-13.2c1.2-6.7,2-11.2,2.6-13.5c0.4-1.3,0.6-2.6,0.8-3.9c0-0.3-0.1-0.5-0.4-0.5
	c-0.7,0-3.4,1.7-8.2,5.2c0.4,0.9,0.6,1.8,0.7,2.7c0,1.8-1.2,5.7-3.7,11.8c-1.9,4.8-4.2,9.4-7.1,13.7c-2.2,3.1-4,4.7-5.4,4.7
	c-1.4,0-2.1-1-2.1-2.9c0-7.1,2.1-14.4,6.4-21.9c0.7-1,1.1-2.1,1.2-3.3c0-0.8-0.2-1.6-0.7-2.3c-1.2-2-1.8-4.4-1.7-6.8
	c0-0.9,0.1-1.8,0.5-2.6c0.3-1,0.5-2,0.5-3c0-1.1-0.1-2.2-0.3-3.3c-2.8-1.2-5.3-3.1-7.2-5.5c-0.4,3.7-0.7,8.1-0.9,13.3
	c-0.2,5.2-0.3,10-0.3,14.6l0.1,11.6c0,7.2-0.8,12.3-2.5,15.2c-1.7,2.9-3.3,4.3-4.8,4.3c-0.7-0.1-1.4-0.5-1.7-1.1
	c-1.1-1.9-2.2-3.8-3.1-5.7c-1.5-3.1-2.9-6.2-4.1-9.2c-0.8,0.9-1.9,1.5-3.1,1.4c-1.3,0-2.7-1.1-4.2-3.3c-1.5-2.2-2.3-3.6-2.3-4.2
	c-0.1-0.5,0.3-1,0.9-1c0,0,0,0,0.1,0c1.2,0,2.3-0.8,2.6-2c0.3-1.2,0.3-4.5,0.3-10c-1.7,1-3.7,2-6.1,3.1c1.4,12.4,2.1,19.5,2.1,21.3
	c0,4-0.8,6-2.5,6c-1.6,0-3-1.9-4.2-5.7c-1.3-3.8-2-9.7-2.2-17.8c-3,1.9-6.1,3.5-9.4,4.9c-3.9,1.7-6.4,2.5-7.3,2.5c-2,0-3-3-3-9
	c0-1,0.1-2,0.4-3c0.2-0.6,0.5-1.2,1-1.6c0.7-0.3,1.4-0.4,2.1-0.4c3.4,0,9-1.7,16.9-5.1c0.2-3.4,0.7-9.1,1.4-17.2
	c0.8-8.1,2.1-14,4-17.7c1.3-2.9,3.1-5.6,5.2-8c1.6-1.6,2.4-3.1,2.4-4.4c0.1-1.1-0.3-2.2-0.9-3.1c-2.9-3.7-4.3-6.6-4.3-8.6
	c0-0.9,0.3-1.3,0.8-1.3c0.6,0,1.1,0.3,1.4,0.8c2,2.3,4.5,4.2,7.4,5.4c2.4,0.9,4.4,2.4,5.8,4.5c0.9,1.3,1.5,2.8,1.7,4.4
	c0,1.8-1.2,3.4-3.5,4.6c-5.8,3.1-9.4,5.8-10.6,8.1c-1.4,2.8-2.2,5.9-2.4,9l3.7-0.4c1.4-5.2,3.2-9.2,5.3-11.8c2.1-2.7,4.4-4,6.7-4
	c2,0,4.4,1.5,7.3,4.4c2.8,2.7,4.3,6.5,4.1,10.5c1,0.5,2,0.7,3.1,0.7c3.7,0,8.4-1,14.3-2.9c5.6-1.8,11-4.4,16-7.6
	c2-1.4,4.3-2.1,6.7-2.1c2.2-0.1,4.2,0.8,5.7,2.3c1.3,1.2,2.1,2.9,2.2,4.8c0.1,1.5-0.6,3-1.7,4c-1,0.9-2.2,1.5-3.6,1.5
	c-1,0-2-0.1-2.9-0.3c-0.7-0.2-1.5-0.3-2.2-0.3c-3.5,0.2-6.8,1.1-9.9,2.6c-4,1.9-7.8,4.2-11.2,7.1c-1.5,1.4-3.5,2.2-5.6,2.4
	c-0.2,0.9-0.3,1.8-0.3,2.7c0,0.9,0.4,1.7,1,2.4C943.6,100.6,944.7,101.5,945.8,102.3z M908.2,102.4c0.3-2.9,0.4-5.1,0.4-6.5
	c0-2.8-0.5-4.2-1.5-4.2c-1.4,0.1-2.8,0.5-4,1.2c-0.8,6.4-1.2,10.5-1.3,12.2C903.8,104.2,905.9,103.3,908.2,102.4z M921.5,97.1
	c0.1-3.6,0.1-7.1,0.1-10.6c0.1-2.5-0.1-5-0.6-7.4c-0.4-1.5-1.2-2.2-2.3-2.2c-2.4,0-4.9,2.3-7.3,6.9c5.1,0.8,7.4,5.7,6.7,14.8
	C919.2,97.9,920.3,97.4,921.5,97.1L921.5,97.1z M921.4,105.4l-4.4,2.4l-2.1,16.2c1.6,3.7,3.2,5.5,5,5.5c1,0,1.4-0.7,1.4-2.1
	C921.2,119.5,921.3,112.1,921.4,105.4L921.4,105.4z M946.4,49.9c4.1,0.1,8.2,0.5,12.3,1c5.7,0.7,9,1.9,9.7,3.6c0.7,1.6,1,3.4,1,5.2
	c0.1,1.3-0.2,2.6-0.8,3.7c-0.8,0.9-2,1.4-3.2,1.4c-4.5,0.6-8.7,2.2-12.4,4.8c-2.6,1.8-5.5,3.2-8.6,4.2c-1.7,0.7-3.5,1.2-5.3,1.5
	c-0.5,0-0.8-0.2-0.8-0.6c0-0.4,0.3-0.8,0.9-1.1c3.4-1.9,6.6-4.1,9.5-6.6c2.6-2.2,3.9-3.8,3.9-4.8c0.1-0.8-0.2-1.5-0.8-2
	c-1.3-0.7-2.9-2.4-4.6-5c-1.8-2.7-2.7-4.2-2.7-4.6C944.6,50.1,945.2,49.9,946.4,49.9L946.4,49.9z"/>
<path class="st2" d="M283.1,110.3c3.1,0,5.9,1.1,8.3,3.4c2.4,2.3,3.6,4.1,3.6,5.5c0,1.4-0.5,2.4-1.4,3.1c-1,0.6-2.3,1-3.9,1
	l-5.1-0.1c-14.7,0-27.7,4.4-39.1,13.1c-2,1.5-4.3,2.3-7,2.3c-2.6,0-4.9-1.3-6.6-3.8c-1.8-2.5-2.7-5.7-2.7-9.5c0-2.5,0.6-3.7,1.8-3.7
	c0.4,0,0.6,0.2,0.8,0.5c0.5,0.9,1.1,1.4,2.1,1.4c0.9,0,2.1-0.2,3.4-0.7c7.2-2.6,17.4-5.3,30.6-8.2c5.1-1.1,8.4-2.1,9.9-3
	C279.4,110.7,281.1,110.3,283.1,110.3z M291.4,89.2c2.4-0.3,4.6-0.4,6.6-0.4c5,0,9.6,0.8,13.6,2.4c4.1,1.6,7.1,3.9,9.2,7
	c2.1,3.1,3.1,5.7,3.1,7.9c0,0.7-0.1,1.3-0.4,1.8c-1.4,2.9-2.5,6.2-3.4,9.7c-1.5,5.9-4.4,12.3-8.8,19.2s-8.7,11.3-12.9,13.3
	c-4.2,2-7.2,3-8.9,3c-1.5,0-2.4-1-2.7-3.1c-0.4-2.1-2.9-5.2-7.5-9.4c-4.6-4.2-9.2-7.6-13.7-10.1c-0.7-0.5-1.1-0.8-1.1-1
	c0-0.2,0.1-0.3,0.4-0.3c0.3,0,0.7,0.1,1.2,0.3c13,4.6,21.6,6.8,25.7,6.8c2.1,0,3.7-0.5,4.9-1.6c1.1-1.1,2.7-3.7,4.6-7.9
	c1.9-4.2,3.4-8.3,4.6-12.2c1.1-4,1.7-7,1.7-9c0-2.1-0.6-3.5-1.7-4.4c-1.1-0.9-3-1.7-5.5-2.5c-2.5-0.7-5.5-1.1-9.1-1.1
	c-3.6,0-7.2,0.7-11.1,2c-3.8,1.3-7.1,3.2-9.7,5.5c-4.5,4.1-8.2,6.2-11.2,6.2c-2.1,0-3.7-1-4.8-3.1c-1.1-2.1-1.6-4-1.6-5.8
	c0-2.1,0.6-3.5,1.9-4.1c1.3-0.6,2.6-3.3,4-8c1.4-4.7,2.1-9,2.1-12.8s-0.2-6.4-0.5-7.8c-0.4-1.4-0.5-2.4-0.5-3.2
	c0-0.8,0.3-1.5,0.8-2.1c0.5-0.6,1.3-1,2.3-1c1,0,2.6,1.3,4.9,4c2.3,2.6,3.4,6.7,3.4,12.3c0,3.1-0.8,7.8-2.5,14.1
	c4.3-1.4,8.1-2.3,11.4-2.9c0.4-7.9,1.1-14.7,2.2-20.2l2.6-13.7c0-0.7-0.3-1.1-0.8-1.1c-0.5,0-1.1,0.3-1.8,0.8
	c-4.6,3.6-8.2,5.3-10.8,5.3c-2.6,0-6-1.6-10.1-4.9c-4.1-3.3-6.2-5.3-6.2-6.1c0-0.8,0.6-1,1.9-0.8c0.5,0.1,1.2,0.1,1.9,0.1
	c3.1,0,7-0.9,11.6-2.7c4.6-1.8,8.5-3.9,11.8-6.5c1.1-0.9,2.7-1.4,4.8-1.4c2.1,0,5.5,1.4,10.3,4.2c4.8,2.8,7.2,5.9,7.2,9.4
	c0,1.6-0.5,2.8-1.6,3.8c-1,1-1.8,1.9-2.3,2.9c-0.5,1-0.9,2.4-1.4,4.3C298.7,67.8,296,76.1,291.4,89.2z"/>
<path class="st2" d="M435.2,87.8c-5.1,3.4-9.2,6.8-12.2,10.2c-3.1,3.4-4.6,5.4-4.6,6.1c0,0.3,0.2,0.4,0.5,0.4c0.8,0,3.4-0.8,7.7-2.5
	c4.3-1.7,7.1-3.2,8.3-4.4c1.3-1.3,3.4-1.9,6.3-1.9c5.1,0,7.7,1.5,7.7,4.4c0,2.9-1.7,6-5.2,9.2c-2.3,2-5.5,5.2-9.6,9.4
	c-4.1,4.3-6.5,6.7-6.9,7.2c-0.5,0.5-0.7,1-0.7,1.4c0,0.5,1,0.8,2.9,1.2c2,0.3,4,1.4,6.2,3.4c2.6,2.4,6,3.6,10,3.6
	c2.2,0,3.9-0.4,5.2-1.1c5.5-3,9.4-4.9,11.7-5.5c2.3-0.7,4.9-1,7.7-1c2.8,0,4.2,0.9,4.2,2.6c0,1.7-1.1,3.9-3.4,6.4
	c-2.3,2.6-5.5,4.7-9.8,6.4c-4.2,1.7-8.5,2.5-12.7,2.5c-4.2,0-8.3-0.9-12.2-2.8c-3.9-1.9-7-4.1-9.4-6.6c-1-1.1-2.3-1.6-3.8-1.6
	c-1.5,0-3.6,1-6.4,3c-2.8,2-4.3,3.3-4.7,3.9c-0.3,0.6-0.8,0.9-1.4,0.9c-0.6,0-1.4-0.6-2.3-1.8c-0.9-1.2-1.3-2.5-1.3-3.8
	c0-1.3,0.6-3.1,1.8-5.6c1.2-2.5,2.5-3.7,3.8-3.7c1.3,0,2.5-0.5,3.5-1.6l7.8-9c4.2-4.7,6.5-7.4,7-7.9c0.5-0.5,0.7-0.9,0.7-1.3
	c0-0.4-0.2-0.5-0.5-0.5c-0.4,0-0.8,0.1-1.2,0.4c-2.5,1.6-5.6,3.5-9.3,5.5c-3.7,2-6.1,3-7.1,3c-1.6,0-2.9-1.5-3.8-4.6
	c-0.9-3.1-1.4-5.5-1.4-7.5c0-1.9,0.5-3.1,1.6-3.6c1.9-0.7,3.5-2.1,4.7-4c1.2-2,2.8-3.9,4.9-5.9c2-2,5.6-5.2,10.8-9.7
	c-0.7-0.4-1.2-0.9-1.4-1.6c-1.2,1.6-2.4,2.9-3.6,3.7c-1.2,0.8-3.4,1.8-6.4,3c-5.5,2.1-9.1,4.7-10.9,7.9c-1.8,3.1-3.1,7.3-4,12.4
	c-0.9,5.1-1.7,8.9-2.5,11.5c-0.8,2.6-1.2,5.6-1.2,9l0.3,10c0,2.2-0.3,4-1,5.4c-0.7,1.4-1.3,2.1-1.9,2.1c-0.6,0-1.7-0.7-3.4-2.1
	c-1.7-1.4-3-3.3-3.9-5.5c-3.5,5.4-6,8.1-7.6,8.1c-1.6,0-3.4-1.3-5.5-3.8c-2.1-2.5-3.1-4.1-3.1-4.7c0-0.6,0.5-1.4,1.4-2.2
	c-2.2-3.6-3.7-7-4.5-10.2c-0.8-3.2-1.5-8.2-1.9-14.8c-0.5-6.7-0.7-11.3-0.7-14c0-2.7,0.5-5.8,1.4-9.4c0.9-3.6,1.9-5.4,2.9-5.4
	c0.5,0,1.6,0.7,3.1,2.2c0.9-2,1.7-6,2.5-12c0.2-1.5,0.6-2.8,1.3-3.9c0.7-1,1.6-2,2.9-2.7c1.2-0.8,2.9-1.2,5-1.2
	c2.1,0,3.7,0.1,4.9,0.3c1.1,0.2,1.9,0.7,2.4,1.3l4,5.6c2.3,3.2,3.6,5.4,3.9,6.6c0.3,1.2,0.5,2.2,0.5,2.9c0,0.7,0,1.3-0.1,1.7
	c-0.8,3-1.5,6.8-1.9,11.5c-0.5,4.7-0.7,8.6-0.7,11.9c0,0.8,0.1,1.2,0.3,1.2c0.2,0,0.5-0.4,0.8-1.2c2-6.9,4.5-13.1,7.5-18.6
	c3-5.5,7.6-11,13.7-16.7c-11.4-13.2-17.1-21.1-17.1-23.7c0-1.5,1-2.9,2.9-4.2c2-1.2,4.1-1.8,6.5-1.8c2.4,0,5,0.4,7.9,1.1
	c2.9,0.7,5.5,1.8,7.8,3.1c2.3,1.4,4.8,3.3,7.3,5.8c2.6,2.5,4.1,4.2,4.7,5.1c0.5,0.9,0.8,1.9,0.8,2.9c0,3-2.3,7-7,12
	c0.9,2.4,1.6,4.1,2.2,5.3c3.3-2.3,6-3.4,8.3-3.4c2.2,0,3.6,0.5,4.2,1.4c0.5,0.9,0.8,4.8,0.8,11.8c0,3.4-0.2,5.7-0.5,6.8
	c-0.4,1.2-1,2.1-1.9,2.9c-0.9,0.7-2,1.1-3.3,1.1C442.8,94.9,439.1,92.6,435.2,87.8z M391.1,95.1c-0.4-10.5-0.7-16.8-1-19
	c-0.3-2.2-1.6-3.3-3.8-3.3c-1.3,0-2.2,0.4-2.9,1.3c-0.6,0.9-2,4.4-4.1,10.6c1.2,2.6,2.4,5.8,3.7,9.8c1.3-0.2,2.4-0.3,3.5-0.3
	C387.5,94.3,389,94.5,391.1,95.1z M381.5,109.4c-0.5,2.1-0.7,4.8-0.7,8.2c2.2-4.5,3.3-7.3,3.3-8.6c0-0.5-0.2-0.7-0.6-0.7
	S382.4,108.7,381.5,109.4z M391.7,123.7l-0.4-13c-3,4.6-6.2,10.2-9.6,16.7c0.1,0.8,0.1,2.4,0.1,4.7c2.4-1.1,3.6-2,3.8-2.7
	c-0.6-1.2-1-2.1-1-2.7c0-0.6,0.3-0.9,0.8-0.9c0.5,0,1.3,0.6,2.4,1.9C389.3,126.2,390.6,124.8,391.7,123.7z M431.9,61
	c1.7-2.1,2.6-3.7,2.6-4.7c0-1-1.4-3.1-4.2-6.1c-2.8-3-5.6-5-8.3-5.9c-2.7-1-4.8-1.4-6.1-1.4c-1.3,0-2.2,0.2-2.7,0.7
	c-0.5,0.5-0.8,1-0.8,1.5c0,0.5,0.3,1,0.8,1.2c5,2,8.9,4.1,11.6,6.4C427.5,55,429.8,57.7,431.9,61z M443.2,86.3c1.9,0,2.9-0.3,2.9-1
	c0-0.7-0.3-1-0.8-1c-0.5,0-1.2,0.1-2.1,0.3V86.3z"/>
<path class="st2" d="M598.9,102.3c2.3,2.1,4.1,4.3,5.4,6.5c1.3,2.2,2,4.2,2,5.9c0,1.7-1,3.4-3,5.1c-1,0.8-2.8,3.1-5.5,6.8
	c-5.2,7.7-11.6,14.4-19.1,20.2c-7.6,5.8-13.8,8.8-18.6,8.8c-1.6,0-2.3-0.4-2.3-1.2c0-0.8,1-1.8,2.9-2.9c5.4-3.4,12.5-11.6,21.4-24.5
	c8.9-13,13.3-19.9,13.3-20.7c0-0.8-0.8-1.2-2.4-1.2c-1.6,0-4.3,0.5-8,1.6c-3.7,1.1-6.7,3-8.8,5.7c-1,1.4-1.9,2.1-2.8,2.1
	c-0.9,0-1.6-1.1-2.1-3.4c-0.5-2.3-0.8-4-0.8-5.3c0-1.2,0.4-2.6,1.2-4.2c0.8-1.6,1.8-2.9,2.9-3.9c2.6-2.5,5.3-6.1,8.3-10.8
	c3-4.7,4.5-7.7,4.5-8.8s-0.5-1.6-1.5-1.6c-0.3,0-0.6,0-1,0.1c-3.8,1.4-6.8,2.1-8.8,2.1s-3.6-0.4-4.7-1.1c-1,4.7-2.6,8.8-4.8,12.3
	c0.4,1.4,0.5,2.5,0.5,3.3c0,1.6-0.8,2.2-2.3,1.8c-1.5-0.3-3.4-0.5-5.6-0.5c-2.2,0-4,0.1-5.4,0.4c0.6,7.7,1.1,12.7,1.3,15.2
	c0.2,2.5,0.3,5,0.3,7.7c0,6.7-0.4,11.9-1.2,15.7c-0.8,3.8-2.3,7.8-4.4,12.1c-8.8-9-14.5-16.1-17-21.2c-2.5-5.1-3.7-8.3-3.7-9.4
	c0-0.2,0-0.3,0.1-0.3c0.3,0,1.2,1,2.7,3c1.5,2,3.3,3.5,5.2,4.5c1.9,1,4,1.5,6.3,1.5c1.2,0,1.8-0.5,2-1.4c0.1-1,0.2-4.2,0.2-9.7
	c0-5.5-0.1-10.8-0.3-15.8c-7.8,2.4-14.1,4.8-19,7.4c-0.1,3-0.7,6.3-1.8,9.8c-1.1,3.5-2.5,7-4.2,10.4c-1.7,3.4-2.9,5.4-3.4,5.9
	c-0.5,0.5-1.2,0.8-2.1,0.8c-0.8,0-1.6-0.6-2.4-1.8c-0.8-1.2-1.2-2.8-1.2-4.7c0-2,0.1-3.7,0.3-5.2c0.2-1.5,0.5-2.3,0.8-2.3
	c0.3,0,0.5,0.1,0.6,0.3c0.1,0.2,0.3,0.3,0.3,0.3c0.8,0,1.7-3,2.7-8.9c-2.3,1.2-4.9,2.2-7.9,2.9c-3,0.8-5.2,1.2-6.6,1.2
	c-1.4,0-2.3-0.1-2.6-0.2c-0.3-0.1-1.3-1.4-2.9-3.9c-1.6-2.5-2.8-4.5-3.7-6.1c-0.9-1.6-1.3-2.7-1.3-3.2c0-0.5,0.2-0.8,0.6-0.8
	c0.4,0,1,0.3,1.6,1c0.7,0.7,1.3,1,1.9,1c0.6,0,1.1-0.1,1.6-0.3c6.4-2.9,13-5.7,19.8-8.2c-0.3-5-0.4-9.5-0.4-13.5
	c0-9.3,0.6-15,1.9-17.1c0.5-0.9,0.7-1.9,0.7-2.9l-0.3-1.8c0-0.6,0.4-1,1.2-1c0.8,0,1.8,0.8,2.9,2.3c1.2,1.5,2.5,2.3,3.8,2.3
	c3.2-6.9,6.5-12.2,9.9-15.7c3.4-3.6,6.7-5.3,9.8-5.3c1.9,0,4.9,1.8,8.9,5.5c4,3.7,6,6.4,6,8.1c0,0.7-0.6,2.3-1.7,4.8
	c-1.1,2.5-2.5,6.7-4,12.6c-1.5,5.9-2.2,10.7-2.1,14.2c1.2-0.2,2.2-0.3,3.1-0.3c2.6,0,4.7,0.8,6.6,2.3c2.8-3,5.2-6.7,7.2-11.1
	c-0.5-7.9,0.7-12.5,3.4-13.8c0.6-2.6,1.1-3.8,1.4-3.8c0.3,0,0.6,0.4,0.9,1.1c4.3-4,6.4-7.2,6.4-9.6c0-1.5-0.7-2.2-2.2-2.2
	c-1,0-1.8,0.6-2.3,1.9c-0.5,1.3-0.8,1.9-1,1.9c-0.2,0-0.3-0.3-0.3-0.8c0-2.1,0.5-3.8,1.4-5.1c0.9-1.3,2.1-1.9,3.7-1.9
	c2.4,0,5.9,1.5,10.7,4.5c4.7,3,7.1,5.7,7.1,7.9c0,0.7-0.2,1.3-0.7,1.6c-8.4,7-12.6,11.3-12.6,12.7c0,0.8,1.4,2.1,4.2,3.7
	c2.8,1.6,5,3.8,6.5,6.4c1.5,2.6,2.3,4.5,2.3,5.7c0,1.1-1,2.9-3,5.3c-2,2.4-4.6,5.2-7.7,8.3c1.5,0.3,2.7,0.4,3.8,0.4
	c1.1,0,2-0.1,2.6-0.3c0.6-0.2,1-0.3,1.1-0.3C597.7,99.6,598.5,100.5,598.9,102.3z M526,88.5c2.8-2.6,4.9-5.2,6.2-7.8
	c1.3-2.6,2-4.8,2-6.4c0-1.6-0.6-2.5-1.8-2.5c-2.3,0-3.7,2.3-4.4,6.8c-0.2,1.5-1,2.5-2.5,3c-0.1,0.6-0.1,1.5-0.1,2.7
	C525.5,85.5,525.7,86.9,526,88.5z M546.1,70l1.5-17.4c0-0.6-0.1-1-0.3-1.2c-0.2-0.2-1-0.3-2.4-0.5c-1.4-0.1-2.9-0.2-4.6-0.2
	c-1.7,0-3,0.2-3.8,0.6c-0.9,0.4-2.2,1.6-4,3.6c-1.8,2-3.1,4.1-4,6.4C535.3,61.9,541.1,64.8,546.1,70z M545.9,75.4
	c-4.7,6.1-8.8,10.2-12.2,12.2c4.2-1,8.2-1.7,12-2.1C545.6,82.5,545.6,79.1,545.9,75.4z"/>
<path class="st2" d="M709,76.1c2.1-0.5,4-0.7,5.6-0.7c4.5,0,9.4,1.9,14.8,5.6c5.4,3.7,8.1,7.2,8.1,10.4c0,1.2-0.5,2.8-1.4,4.9
	c-1,2.1-1.9,6-2.9,11.8c-3.1,16.9-6.9,27.5-11.4,31.9c-4.5,4.4-7.8,6.6-9.9,6.6c-2.1,0-5.4-1.8-9.7-5.3c-4.3-3.6-7.7-7.9-10.2-13
	c-2.5-5.1-3.7-10.6-3.7-16.4c0-8.6,3.2-12.9,9.6-12.9c3.7,0,6.8,1.1,9.1,3.4c2.3,2.2,3.5,4.6,3.5,7.1c0,2.5-0.7,4.4-2.1,5.8
	s-2.9,2.1-4.4,2.1c-1.6,0-2.9-0.3-3.8-1c-2-1.5-4.1-2.2-6.3-2.2c-0.7,0-1.3,0.1-1.8,0.3c0.4,3.1,1.9,6,4.6,8.8
	c2.7,2.8,5.4,4.7,8.1,5.7c2.7,1,4.7,1.5,6.2,1.5c1.4,0,2.6-0.3,3.4-1c0.9-0.7,2.1-2.8,3.8-6.5c1.7-3.6,3.3-8.6,4.7-14.9
	c1.5-6.3,2.2-10.9,2.2-13.8c0-2.9-0.5-5.1-1.5-6.5c-1-1.4-2.4-2.1-4.1-2.1c-2.5,0-5.6,0.8-9.3,2.3c-3.7,1.6-7.3,3.7-10.6,6.4
	c-3.3,2.7-5.9,4.1-7.7,4.1c-1.8,0-2.7-2.6-2.7-7.8c0-3,0.2-5.2,0.5-6.5c0.4-1.3,1.3-2.2,2.7-2.6c1.4-0.4,2.5-1.1,3.4-2.1
	c0.8-1,2.2-3.4,4.2-7.5c2-4,3.6-7.7,4.7-11c1.1-3.3,1.6-5.9,1.6-7.8c0-1.9-0.2-3.4-0.7-4.7c-0.5-1.2-1.1-1.8-1.9-1.8
	s-1.3,0.6-1.4,1.9c-0.5,6.7-6.4,18.8-17.8,36.2c1.9,3.7,2.9,6.7,2.9,9c0,0.5-0.5,3.5-1.4,8.8l-2.7,16.4c-1,5.5-2,9.6-3.1,12.5
	c-1,2.9-2.2,4.8-3.6,5.7c-1.3,1-2.9,1.4-4.7,1.4c-3.3,0-6.3-2.6-9.1-7.7c-2.8-5.2-4.2-9.6-4.2-13.3s0.5-6.7,1.6-8.9
	c1-2.2,5.4-8.1,12.9-17.7c-0.6-2.8-1.3-4.2-1.9-4.2c-0.9,0-3.4,3.4-7.6,10.1c-4.1,6.7-6.2,14.2-6.2,22.3c0,2.2,0.1,4.1,0.3,5.8
	c0.2,1.7,0.3,2.9,0.3,3.8c0,3.4-0.8,5.1-2.5,5.1c-1.6,0-3.7-1.5-6.2-4.5c-2.5-3-4.5-6.9-6.1-11.7c-1.6-4.8-2.4-9.6-2.4-14.3
	l0.5-13.4l-0.3-7.1c0-1.4,0.6-3.1,1.8-5.1s2.5-3.4,3.9-4c3.5-1.5,6.5-3.6,9.1-6.6c2.6-2.9,3.9-5.4,3.9-7.4c0-0.5-0.1-1-0.4-1.4
	c-2.3-3.4-3.4-5.9-3.4-7.7c0-0.8,0.6-1.2,1.8-1.2c1.2,0,3.4,0.6,6.4,1.8c3.1,1.2,5.6,3,7.7,5.3c2.1,2.4,3.1,5.1,3.1,8.2
	c0,2.1-0.8,3.4-2.3,4c-2.4,0.8-4.6,2.3-6.7,4.4c-2.1,2.1-5.7,3.1-10.8,3.1l-4.9-0.3c-1.4,0-2.5,0.3-3.3,1c-0.8,0.7-1.2,1.4-1.2,2.1
	c0,0.7,0.1,1.2,0.3,1.6c3,6.4,4.9,11.9,5.7,16.4c3.1-5.3,5.9-9.5,8.5-12.5c2.6-3.1,4.6-5.1,6.2-6.2c1.5-1.1,3.4-1.6,5.6-1.6
	c3.5,0,6.4,1.2,8.8,3.7c8-11.4,13.1-19.9,15.3-25.6c2.2-5.7,3.3-9.2,3.3-10.6c0-1.4,0.5-2.4,1.4-3c0.9-0.6,2.1-0.9,3.6-0.9
	c2.9,0,5.6,1.5,8.1,4.4c2.5,3,3.7,5.9,3.7,8.8c0,2.9-1,7-3,12.4C711.4,71.6,709.9,74.9,709,76.1z M675.1,100.8
	c-4.8,7.4-7.2,12.6-7.2,15.7c0,1.2,0.2,2.2,0.5,3c0.3,0.8,0.8,1.2,1.4,1.2c1.4,0,2.5-2.2,3.5-6.5C674.2,110,674.8,105.5,675.1,100.8
	z M692.1,112.9c1.4-0.2,2.6-0.7,3.6-1.5c1-0.8,1.5-1.5,1.5-2.1s-0.9-0.8-2.7-0.8c-0.6,0-1.1,0.3-1.4,1
	C692.6,110.2,692.3,111.3,692.1,112.9z"/>
</svg>
