<svg id="图层_1" data-name="图层 1" xmlns="http://www.w3.org/2000/svg" viewBox="0 0 1415 1415"><title>bkrs</title><circle cx="707.5" cy="707.5" r="707.5" style="fill:none"/><rect x="207.5" y="207.5" width="1000" height="1000" style="fill:#fff"/><path d="M472.7888,510.5167a760.6012,760.6012,0,0,0,96.3337,130.4088q54.267,58.9,115.2647,92.1276Q745.3783,766.3,855.6015,794.05,879.9932,799.9268,880,808.3533c0,2.8-2.8136,5.0478-8.4134,6.7312q-8.42,2.5233-62.2593,6.73-53.8539,4.2-92.9687,4.2073-39.1228,0-55.1079-11.3587-15.9938-11.3575-76.1425-84.1339-60.1623-72.7635-119.0506-181.31Q442.494,653.5521,390.3365,711.1779q-52.1766,57.639-116.1058,80.3486-63.9481,22.7169-86.6584,22.7163-7.5717,0-7.5723-4.2073,0-4.2186,18.51-12.6195,120.3065-53.0054,174.159-133.7743,53.8324-80.7689,59.7354-194.3508Q401.2678,474.3393,355,486.1177q-46.28,11.7921-63.9421,11.779-17.6685,0-39.1228-10.0962t-21.4543-15.5649q0-5.4622,26.0819-8.8342,56.3567-6.7241,177.524-28.6058,1.6756-46.2607,1.6828-92.5478,0-46.2607-4.6275-79.5076-4.6344-33.2258-17.2476-51.322-12.62-18.0824-12.62-27.7641,0-9.663,13.882-9.6759,13.8826,0,50.9012,12.6207,37.0125,12.62,37.02,31.13,0,6.7439-3.3656,15.9857a121.7575,121.7575,0,0,0-5.4686,23.5574q-2.11,14.3163-5.4687,62.26l-7.5722,106.01q90.8647-17.6683,117.788-26.9235,44.5851-15.9721,74.0383-15.9851,29.4417,0,51.322,15.144,21.87,15.1443,21.8758,25.24,0,15.1443-46.2742,15.9856-92.5611.8478-221.2738,21.0335Q476.1541,491.173,472.7888,510.5167Z" transform="translate(207.5 207.5)"/></svg>