<svg id="图层_1" data-name="图层 1" xmlns="http://www.w3.org/2000/svg" viewBox="0 0 1415 1415"><title>eyuzhijia</title><circle cx="707.5" cy="707.5" r="707.5" style="fill:none"/><rect x="207.5" y="207.5" width="1000" height="1000" style="fill:#fff"/><rect x="242.1" y="242.1" width="448" height="448" style="fill:#73b015"/><rect x="724.9" y="242.1" width="448" height="448" style="fill:#0489f2"/><rect x="242.1" y="724.9" width="448" height="448" style="fill:#f6b406"/><rect x="724.9" y="724.9" width="448" height="448" style="fill:#e1555e"/><path d="M612.6912,218.9659q-28.6068,40.8634-59.2477,68.2367l-4.9042-4.9035q35.55-51.4842,55.7754-99.0858,20.2243-47.5963,34.5258-112.57Q672.7515,83.3137,680.11,88.0087q7.3541,4.7019,7.3548,7.9682,0,3.2745-6.13,4.4945-6.13,1.2258-8.58,4.29t-8.1727,17.3655a475.485,475.485,0,0,1-31.87,64.5593,73.5308,73.5308,0,0,1,13.8918,6.7422q6.1295,3.8877,6.13,5.72,0,1.8392-8.5816,5.1079v227.591q0,3.6782-1.838,5.5161t-12.8717,6.5377q-11.0322,4.693-16.3439,4.699-2.0476,0-2.0432-4.4945l1.2268-37.5913q.4015-17.1618.409-33.0968Zm178.15-8.9891H747.5288v56.3866L787.164,252.88l2.4506,8.1719-42.0858,22.8817V401.2025q0,12.258-2.6558,17.5692-2.6612,5.3065-17.1618,14.097-14.5074,8.7818-17.773,8.7854-3.2766,0-3.6774-3.6774-3.6781-23.2914-41.2694-34.7318l1.2253-7.3548q27.7836,4.9038,36.1615,4.9035,8.3712,0,11.6449-1.8387,3.2655-1.8392,3.27-8.3765v-89.484q-14.3089,8.9923-26.9687,18.3871-12.67,9.405-15.1172,12.2583-2.4535,2.8639-4.2915,2.86c-1.2253,0-2.3867-1.0856-3.4722-3.2685L652.3249,297.417q30.2327-8.58,64.9682-20.8385V209.9768H678.0668q-8.9935,0-13.4844,2.4514l-5.7206-16.3439a73.3162,73.3162,0,0,0,15.9365,1.6342h42.4948v-53.527q-33.0967,11.8565-58.4313,16.3439l-2.4506-6.9459A529.9621,529.9621,0,0,0,758.1521,89.8474q13.8873,13.0821,20.43,21.8608,6.531,8.79,6.5384,11.6449,0,3.677-4.29,2.86a38.5845,38.5845,0,0,0-6.7421-.8172q-7.3564,0-26.56,7.3549v64.9674h42.9037L785.53,68.6q13.071,3.2756,27.9889,7.9682Q828.43,81.27,831.4967,83.1059q3.0648,1.8381,3.0648,4.4946,0,2.6621-13.4844,7.9675-.41,60.0639,0,102.1505H872.97l14.71-20.0213q2.8528-4.4912,5.3116-4.4945,4.08,0,22.6772,13.688,18.5893,13.6944,18.5923,18.3871,0,4.702-6.9474,4.699H821.4861q2.4513,65.3794,11.4411,98.8814,18.788-31.8711,37.5906-82.5375a272.7779,272.7779,0,0,1,28.8067,14.0963q11.6456,6.7429,11.6449,9.398,0,2.6622-5.5154,4.0864-5.5161,1.4364-7.9675,3.6774-2.4513,2.2506-6.5385,9.1935a557.8788,557.8788,0,0,1-48.2153,69.462q6.9436,13.8963,22.4734,32.0752,15.5245,18.1868,20.0214,18.1833,2.4513,0,4.699-4.2908,2.2416-4.29,10.2158-28.3977,7.9675-24.1044,12.87-43.72l6.9459,2.0424q-10.6284,54.76-10.6233,75.3871,0,20.628,6.9459,36.1615a29.3117,29.3117,0,0,1,2.8611,11.4412q0,4.9028-7.3549,4.9027-15.1208,0-41.8821-17.161-26.7664-17.1618-50.8712-60.0647a579.0269,579.0269,0,0,1-62.9235,55.57l-5.3131-5.3116q36.7749-38.4121,58.8386-69.0538-8.5787-19.2017-12.4612-48.2154Q793.2869,266.7757,790.8414,209.9768ZM839.8731,95.159q34.3236,15.1219,45.56,24.7211,11.2329,9.6048,11.2359,20.634a37.0744,37.0744,0,0,1-6.7421,21.0429q-6.7407,10.0173-12.4613,10.0107-8.5809,0-10.6248-8.9891-6.9527-32.6851-30.2357-61.699Z" transform="translate(207.5 207.5)" style="fill:#fff"/><path d="M701.6751,810.7734q-25.12,25.9323-50.0219,56.8121-24.9187,30.8826-32.32,44.8734c-1.1,1.9209-2.2,2.887-3.2946,2.887q-7.0023,0-30.4665-29.6457a61.776,61.776,0,0,0,15.6465-41.5789V704.14H569.5174a42.6989,42.6989,0,0,0-13.5859,2.0606l-11.1179-17.7071a61.8723,61.8723,0,0,0,17.2938,2.0606h36.2293l11.9387-19.762q2.4709-4.1127,5.35-4.1154,2.8813,0,20.5884,12.5585,17.6986,12.5557,17.7014,16.2607,0,3.7023-18.1146,12.352V847.8236l61.3463-45.7ZM575.28,553.0473q33.3451,10.713,48.9944,19.1421,15.6381,8.443,20.7894,17.908,5.1429,9.4818,5.1485,22.6434a38.0785,38.0785,0,0,1-7.209,23.0565q-7.2035,9.8838-16.2607,9.8838-9.063,0-12.7652-15.6465-5.7627-25.1031-13.1727-38.4965-7.4128-13.3682-27.9929-31.494Zm179.9124,39.9371H688.4967q-11.115,0-17.2882,2.8814l-7.41-17.2938a89.4269,89.4269,0,0,0,20.5828,2.0605H849.8869l16.4673-22.6433q4.5231-6.5837,10.2914-6.5892,5.7627,0,23.4642,14.82,17.6987,14.8256,17.707,20.7894,0,5.9805-9.0573,5.9749H793.4824L779.07,652.6779h46.9339L838.3558,635.39q2.4709-3.2919,4.121-3.2946,2.4626,0,19.1422,12.5529,16.6767,12.5641,16.6739,16.2663,0,3.7023-16.8806,10.7047l-3.2945,58.0461h16.4673l16.4674-22.23q3.2917-4.1125,6.5891-4.1154,3.2919,0,21.8225,14.82,18.5279,14.8172,18.5223,19.5553,0,4.7409-6.9968,4.7353H674.9107q-11.115,0-17.2882,2.8813l-7.41-17.7014a89.76,89.76,0,0,0,20.5828,2.0549h57.2253l13.1728-65.0485H701.2619q-11.1151,0-17.2938,2.8813l-7.41-16.88a89.4457,89.4457,0,0,0,20.5884,2.0605h46.1075ZM746.1353,786.89h91.4L849.06,768.3682q1.6418-2.8815,4.3221-2.8814,2.672,0,15.0267,8.2309l19.3543,12.7651q6.9939,4.1211,6.9968,8.6441,0,4.5315-15.6465,11.5255v74.5191q0,8.644.4132,14.82l.8264,10.2969a4.21,4.21,0,0,1-1.033,3.0824,66.5547,66.5547,0,0,1-20.5828,10.5036,51.7459,51.7459,0,0,1-14.2058,2.055q-3.3,0-3.2946-4.1155V892.7026H740.3725v21.4036a8.0107,8.0107,0,0,1-3.0879,6.5892q-3.0909,2.471-15.44,6.5892-12.3464,4.1042-16.8806,4.1154-1.65,0-1.6473-3.2946l.4132-14.4068q.41-6.5921.4132-13.9992V801.7161q0-16.8778-1.234-34.5876A184.4048,184.4048,0,0,1,746.1353,786.89Zm95.1019,91.8129V800.89H740.3725v77.8137ZM776.1886,664.6166l-15.2333,65.0485h63.4069l4.1154-65.0485Z" transform="translate(207.5 207.5)" style="fill:#fff"/><path d="M159.6783,363.1885q25.7069,18.7382,47.0634,25.2738,21.3491,6.5386,70.5965,10.4589,49.2414,3.9231,102.4075,3.9217,53.1645,0,82.7989-3.9217v9.1526q-24.4124,3.0409-32.6828,9.3683-8.2851,6.3126-14.8179,25.4926-1.7466,5.6563-6.1,5.6653-16.566,0-70.162-5.6653-53.5991-5.67-86.7178-11.7651-33.1232-6.1087-52.0755-15.9055-18.96-9.8058-40.7479-34.2107-8.2808-9.15-11.9838-9.15a10.2341,10.2341,0,0,0-6.3184,1.9594q-2.6111,1.9638-18.9554,21.5708a446.49,446.49,0,0,0-29.8516,40.0918q-2.6155,4.3532-5.228,4.3591a5.5809,5.5809,0,0,1-4.3591-1.9623q-1.7466-1.9595-27.8892-43.36,66.2329-40.0874,88.8987-37.4763,130.2939-96.7407,199.15-164.7232H109.1277q-11.7651,0-18.3023,3.05L82.982,174.4948a94.8363,94.8363,0,0,0,21.7866,2.178H344.4474l17.8678-21.3521a12.38,12.38,0,0,1,10.0215-4.7935q6.1,0,19.177,10.0244,13.0728,10.0274,23.0958,16.993,10.0185,6.9776,10.0214,11.3307,0,4.362-10.4588,4.3591-11.335,0-23.9676,11.3307Q291.7172,291.2872,159.6783,363.1885ZM209.3571,68.6q35.7253,11.77,58.1753,24.8394,22.44,13.0728,22.4427,29.8516,0,16.7789-10.0215,28.3267-10.0319,11.5479-17.43,11.5464-7.4164,0-10.0244-3.4843-2.6155-3.4844-4.3562-11.3307-6.9774-30.0688-16.1242-44.0135-9.1541-13.9416-25.7112-29.6329Z" transform="translate(207.5 207.5)" style="fill:#fff"/><path d="M223.3314,687.99H162.58q-11.0078,0-17.1242,2.8536l-6.1163-18.3491a88.6,88.6,0,0,0,20.3869,2.0406H317.9249l15.902-18.7583a9.2862,9.2862,0,0,1,7.745-3.6665q4.8942,0,20.7962,15.2854,15.9019,15.2964,15.8992,17.94c0,1.7751-2.0379,2.6544-6.1136,2.6544H276.3353q-27.7311,20.39-38.3241,27.7228,29.3527,19.17,43.6247,44.4459,54.6325-33.8447,80.3229-61.1636a269.9353,269.9353,0,0,1,23.4452,19.1675q11.6217,10.6014,13.25,13.0457a8.2967,8.2967,0,0,1,1.6314,4.485q0,4.4877-6.1164,4.4849a28.33,28.33,0,0,1-6.5228-1.0175,36.06,36.06,0,0,0-8.7653-1.0231q-4.6951,0-22.4249,7.7478-17.7393,7.7477-35.2686,13.8641,14.2636,41.9988,43.8293,68.0874,29.556,26.0969,82.5654,44.0368l-1.6314,8.157q-33.0234-1.6343-48.1124,17.94c-1.3632,1.8969-2.8536,2.8536-4.485,2.8536q-6.5242,0-37.3065-31.3948-30.7878-31.3976-45.87-105.6041l-23.24,8.157a132.9962,132.9962,0,0,1,9.7856,51.37,290.3258,290.3258,0,0,1-5.5025,55.86q-5.508,28.1374-26.2987,40.16Q244.1249,931.4,237.1955,931.4q-3.6706,0-5.3007-7.7478-5.3047-23.65-48.1124-37.1019l.8156-8.1514q28.5357,6.5117,42.4026,6.52,13.8573,0,19.7759-2.6489,5.9063-2.6545,8.3588-7.1339,2.4471-4.4961,5.3007-25.6877a246.8937,246.8937,0,0,0,2.4444-38.324q-44.0313,35.47-86.03,57.0768Q134.8514,889.81,73.6961,907.753l-4.0785-8.1515q63.1973-26.9181,103.1569-55.451Q212.7287,815.615,255.951,768.31a68.7251,68.7251,0,0,0-5.71-13.8641q-39.5518,31.8039-75.4288,51.3752-35.8852,19.5685-88.8864,36.6982l-4.8914-8.97q41.5883-17.5278,83.7876-47.7088,42.202-30.1616,66.2569-59.5267l-3.6693-3.6665q-61.5714,39.9582-143.9281,61.1581l-4.485-8.157a465.0333,465.0333,0,0,0,86.03-40.973Q204.57,710.42,223.3314,687.99Zm24.8719-69.7243q-10.6055-45.2589-37.9176-59.1175l3.6692-7.7478q71.754,15.902,71.76,39.9555,0,6.5283-4.8942,14.8817-4.89,8.3616-11.8235,12.0281H374.598L387.6465,605.22c3.5282-3.5282,6.1163-5.3034,7.7477-5.3034q2.443,0,10.3968,6.321,7.9509,6.3292,17.7352,14.8816A152.2182,152.2182,0,0,1,437.1857,634.17q3.87,4.4878,3.8739,7.3386,0,7.3329-11.0106,7.3385l-8.97-.8185q-11.0078,0-26.0941,5.3035a117.6608,117.6608,0,0,0-28.9477,15.0863l-5.71-5.7072q13.0442-18.7555,18.7555-31.804H145.8647q-.8253,28.95-12.8438,44.4405-12.0323,15.5038-26.7079,15.4955-11.0078,0-18.1445-5.7071T81.0346,671.88q0-7.5405,10.6013-12.4319,38.32-18.3491,44.034-63.608h9.7856q.4023,7.7478.4092,22.4249Z" transform="translate(207.5 207.5)" style="fill:#fff"/></svg>