<svg id="图层_1" data-name="图层 1" xmlns="http://www.w3.org/2000/svg" xmlns:xlink="http://www.w3.org/1999/xlink" viewBox="0 0 1000 1000"><defs><linearGradient id="未命名的渐变_7" x1="500" y1="895" x2="500" y2="105" gradientUnits="userSpaceOnUse"><stop offset="0" stop-color="#001c52"/><stop offset="0.5" stop-color="#01406f"/><stop offset="1" stop-color="#005c7f"/></linearGradient></defs><title>kartaslov</title><circle cx="500" cy="500" r="500" style="fill:none"/><rect x="105" y="105" width="790" height="790" rx="142.2" style="fill:url(#未命名的渐变_7)"/><path d="M860.24,285.12A109.02,109.02,0,1,0,895,497.4987V290.7813A108.8929,108.8929,0,0,0,860.24,285.12Z" style="fill:#005f86"/><path d="M295.39,149.24A137.287,137.287,0,0,0,288.1138,105H247.2A142.2,142.2,0,0,0,105,247.2v28.9329A137.5241,137.5241,0,0,0,295.39,149.24Z" style="fill:#007296"/><path d="M157.93,202.96a53.7069,53.7069,0,0,0,40.2478-89.2822A142.669,142.669,0,0,0,118.8,186.0261,53.5564,53.5564,0,0,0,157.93,202.96Z" style="fill:#006895"/><path d="M860.24,323.04A71.1,71.1,0,1,0,895,456.1726V332.1074A70.77,70.77,0,0,0,860.24,323.04Z" style="fill:#00517e"/><path d="M721.99,830.615A67.5422,67.5422,0,0,0,654.5249,895H752.8a142.4,142.4,0,0,0,36.2683-4.6745A67.5439,67.5439,0,0,0,721.99,830.615Z" style="fill:#014b7b"/><path d="M721.99,844.44A53.7168,53.7168,0,0,0,668.37,895H752.8a143.1936,143.1936,0,0,0,22.6726-1.8069A53.7184,53.7184,0,0,0,721.99,844.44Z" style="fill:#003f75"/><circle cx="289.07" cy="651.68" r="101.91" style="fill:#014371"/><polygon points="272.615 330.885 249.958 330.885 210.369 381.921 210.369 330.885 191.319 330.885 191.319 441.344 210.369 441.344 210.369 400.971 220.796 390.858 253.173 441.344 276.221 441.344 234.828 378.471 272.615 330.885" style="fill:#fff"/><path d="M345.5231,280.5258,285.4138,441.54h27.8834l15.8843-43.9959h65.0226L410.2028,441.54h27.8834L378.0916,280.5258Zm-9.8279,95.8772L353.6363,326.35q2.5125-6.8568,4.3427-12.57,1.8266-5.7135,3.8853-12.342,4.3417,14.7412,8.1137,25.0264l18.0554,49.9384Z" style="fill:#fff"/><path d="M721.5631,280.5258,661.4538,441.54h27.8834l15.8843-43.9959h65.0226L786.2428,441.54h27.8834L754.1316,280.5258Zm-9.8279,95.8772L729.6763,326.35q2.5125-6.8568,4.3427-12.57,1.8265-5.7135,3.8853-12.342,4.3417,14.7412,8.1137,25.0264l18.0554,49.9384Z" style="fill:#fff"/><path d="M534.9614,339.905q-10.0908-8.8194-28.8224-8.8192h-33.81V441.54H490.757V399.7572h16.1435q11.8026,0,20.446-4.39A30.9887,30.9887,0,0,0,540.52,383.138a35.6944,35.6944,0,0,0,4.5308-18.187Q545.0511,348.7238,534.9614,339.905Zm-14.24,40.7636q-5.7506,5.4493-16.1055,5.4484H490.757V344.8829h13.25q11.2692,0,16.8673,5.3306t5.5969,14.8943Q526.4709,375.2207,520.7216,380.6686Z" style="fill:#fff"/><polygon points="563.31 347.706 595.463 347.706 595.463 441.686 614.212 441.686 614.212 347.706 646.83 347.706 646.83 332.52 563.31 332.52 563.31 347.706" style="fill:#fff"/><path d="M306.3358,686.3873a21.3635,21.3635,0,0,1-14.426,5.1873q-12.4209,0-19.5377-10.9047-7.1184-10.9047-7.1184-29.8366,0-19.0833,6.967-29.42t19.84-10.3368a22.3344,22.3344,0,0,1,14.3125,4.6193q5.831,4.6194,8.4057,13.5552l16.2057-5.7553q-4.9239-14.0852-14.6533-20.5978-9.731-6.5124-24.6492-6.5125-21.5823,0-33.32,14.3124-11.7393,14.3125-11.7377,40.1355,0,25.9744,11.927,40.6656T291.834,706.19q29.0793,0,39.6811-28.2463l-16.2813-6.3611Q312.3546,681.2,306.3358,686.3873Z" style="fill:#fff"/><path d="M377.0121,662.74c.0781,1.48.7733,19.7077-11.85,27.65a22.3855,22.3855,0,0,1-8.69,3.16v12.64a30.54,30.54,0,0,0,16.59-3.16c11.36-5.9468,18.0009-19.5349,17.38-34.76V608.23h35.55v97.96h15.2958V596.38H377.0121Z" style="fill:#fff"/><path d="M555.4112,541.08q-35.824,0-55.6275,21.4073T479.98,622.9518q0,39.3987,19.6922,61.3184t55.5163,21.92q23.3635,0,40.33-9.9635t26.0337-28.9228q9.0672-18.9591,9.0673-44.3519,0-38.6016-19.6922-60.2367T555.4112,541.08Zm35.49,127.5332q-12.1268,15.6-35.7128,15.6-23.03,0-35.4348-16.1694t-12.4049-45.0921q0-28.9229,12.238-44.352t35.8241-15.4292q23.1411,0,35.3792,15.5431t12.238,44.2381Q603.0284,653.0132,590.9016,668.6132Z" style="fill:#fff"/><path d="M725.3638,648.1771q10.02-2.2693,15.5014-8.9251,5.4791-6.6534,5.48-16.5193,0-26.8517-39.85-26.8532H675.4151V706.19h35.7782q19.6509,0,30.6117-8.1031t10.96-22.9q0-11.3508-7.2412-18.5151Q738.281,649.5075,725.3638,648.1771Zm-30.9247-38.518h11.1178q10.9593,0,16.3233,3.7576,5.3605,3.7586,5.3624,11.8218,0,8.2206-5.48,12.5656t-16.0493,4.3446H694.4391Zm33.0385,77.8589q-6.1059,4.8939-18.5541,4.8925H694.4391V655.3013h13.3876q12.2132,0,18.9859,4.5805,6.77,4.5792,6.7714,13.5046Q733.584,682.6254,727.4776,687.518Z" style="fill:#fff"/></svg>